<svg xmlns="http://www.w3.org/2000/svg" width="140" height="131.31" viewBox="0 0 140 131.31">
  <g id="opencv-icon" transform="translate(0)">
    <path id="Path_16" data-name="Path 16" d="M3.864,45.186a30.251,30.251,0,1,1,30.251,0L25.007,29.41a12.035,12.035,0,1,0-12.035,0Z" transform="translate(56.212 11.263)" fill="#409ded"/>
    <path id="Path_17" data-name="Path 17" d="M15.128,56.449a30.251,30.251,0,1,1,30.251,0L36.271,40.673a12.035,12.035,0,1,0-12.035,0Z" transform="translate(140 120.236) rotate(180)" fill="#409ded"/>
    <path id="Path_18" data-name="Path 18" d="M15.129,56.452a30.252,30.252,0,1,1,30.252,0L36.273,40.675a12.035,12.035,0,1,0-12.035,0Z" transform="translate(30.254 131.31) rotate(-119.998)" fill="#409ded"/>
  </g>
</svg>
