<svg width="800" height="160" viewBox="0 0 800 160" fill="none" xmlns="http://www.w3.org/2000/svg">
<rect width="800" height="160" fill="url(#paint0_linear_108_1374)"/>
<path d="M59.07 59.2751C59.5591 59.2833 60.0465 59.2159 60.515 59.0751C60.8978 58.9615 61.2534 58.771 61.56 58.5151C61.8352 58.2784 62.051 57.9804 62.19 57.6451C62.3333 57.2911 62.4047 56.9121 62.4 56.5301C62.4237 56.176 62.362 55.8213 62.2202 55.4959C62.0784 55.1705 61.8606 54.8839 61.585 54.6601C60.8605 54.1891 60.0019 53.9679 59.14 54.0301H57.13V59.2801L59.07 59.2751ZM65.77 66.7151H63.87C63.7033 66.7258 63.5371 66.6892 63.3902 66.6096C63.2434 66.53 63.122 66.4106 63.04 66.2651L59.49 61.2851C59.3976 61.1382 59.2706 61.0163 59.12 60.9301C58.9308 60.8493 58.7254 60.8134 58.52 60.8251H57.13V66.7151H55V52.3551H59.14C59.9476 52.3404 60.7534 52.4363 61.535 52.6401C62.1369 52.7965 62.7014 53.0719 63.195 53.4501C63.6192 53.7839 63.9528 54.2189 64.165 54.7151C64.3814 55.2414 64.4885 55.8062 64.48 56.3751C64.4833 56.8547 64.4056 57.3315 64.25 57.7851C64.1004 58.2185 63.8715 58.6204 63.575 58.9701C63.2659 59.3284 62.8992 59.6326 62.49 59.8701C62.0378 60.1337 61.5492 60.3292 61.04 60.4501C61.3166 60.6198 61.5522 60.8486 61.73 61.1201L65.77 66.7151ZM73.28 60.5051C73.2837 60.1419 73.2279 59.7804 73.115 59.4351C73.0126 59.1218 72.8476 58.8326 72.63 58.5851C72.4144 58.3433 72.1481 58.1521 71.85 58.0251C71.5142 57.8861 71.1533 57.818 70.79 57.8251C70.4361 57.8053 70.0819 57.8581 69.7491 57.9802C69.4164 58.1023 69.1121 58.2911 68.855 58.5351C68.3504 59.0776 68.0347 59.7686 67.955 60.5051H73.28ZM74.89 65.2651C74.6496 65.5454 74.3701 65.7896 74.06 65.9901C73.747 66.1933 73.4114 66.3594 73.06 66.4851C72.7045 66.6124 72.3379 66.7061 71.965 66.7651C71.5963 66.8245 71.2235 66.8546 70.85 66.8551C70.185 66.8616 69.5249 66.7411 68.905 66.5001C68.3188 66.2705 67.7898 65.9155 67.355 65.4601C66.899 64.9716 66.5515 64.3923 66.335 63.7601C66.0796 63.0087 65.9561 62.2187 65.97 61.4251C65.9642 60.7526 66.0759 60.0842 66.3 59.4501C66.5073 58.8616 66.8284 58.3196 67.245 57.8551C67.6645 57.395 68.1776 57.0302 68.75 56.7851C69.3823 56.5174 70.0635 56.3845 70.75 56.3951C71.3354 56.3875 71.917 56.4892 72.465 56.6951C72.9748 56.8897 73.4369 57.1915 73.82 57.5801C74.216 57.9891 74.5225 58.4761 74.72 59.0101C74.9462 59.6314 75.0564 60.289 75.045 60.9501C75.0621 61.1553 75.0278 61.3616 74.945 61.5501C74.9027 61.6083 74.8457 61.6543 74.7798 61.6833C74.7139 61.7122 74.6415 61.7232 74.57 61.7151H67.91C67.9185 62.2534 68.0061 62.7874 68.17 63.3001C68.303 63.7144 68.5191 64.0972 68.805 64.4251C69.0695 64.7213 69.4001 64.9508 69.77 65.0951C70.1691 65.2464 70.5932 65.3211 71.02 65.3151C71.4004 65.3225 71.7798 65.2719 72.145 65.1651C72.4267 65.0791 72.7009 64.9704 72.965 64.8401C73.195 64.7235 73.3883 64.6151 73.545 64.5151C73.6665 64.4272 73.8103 64.3752 73.96 64.3651C74.0318 64.3617 74.1033 64.3764 74.168 64.4079C74.2326 64.4393 74.2884 64.4865 74.33 64.5451L74.89 65.2651ZM82.6 62.2051C81.9232 62.2208 81.2483 62.2826 80.58 62.3901C80.1155 62.4609 79.6619 62.5902 79.23 62.7751C78.9352 62.8951 78.6767 63.0899 78.48 63.3401C78.3284 63.5513 78.2479 63.8052 78.25 64.0651C78.2444 64.2899 78.287 64.5132 78.375 64.7201C78.4516 64.8946 78.5681 65.0487 78.715 65.1701C78.8636 65.2895 79.0357 65.3764 79.22 65.4251C79.4254 65.48 79.6374 65.5069 79.85 65.5051C80.1276 65.5076 80.4045 65.4774 80.675 65.4151C80.9172 65.357 81.1521 65.2714 81.375 65.1601C81.5985 65.0493 81.8097 64.9153 82.005 64.7601C82.2146 64.5912 82.4118 64.4074 82.595 64.2101L82.6 62.2051ZM76.88 57.9751C77.4136 57.4572 78.0416 57.0464 78.73 56.7651C79.4258 56.4924 80.1677 56.3566 80.915 56.3651C81.4423 56.355 81.9662 56.452 82.455 56.6501C82.886 56.8302 83.2719 57.1034 83.585 57.4501C83.8995 57.8037 84.1362 58.2193 84.28 58.6701C84.4419 59.1775 84.5212 59.7076 84.515 60.2401V66.7151H83.645C83.4924 66.7246 83.3401 66.6917 83.205 66.6201C83.0875 66.5321 83.0029 66.407 82.965 66.2651L82.755 65.3751C82.5111 65.6019 82.254 65.8139 81.985 66.0101C81.7353 66.1913 81.4691 66.3487 81.19 66.4801C80.9057 66.6125 80.6071 66.7115 80.3 66.7751C79.9578 66.8446 79.6092 66.8782 79.26 66.8751C78.8788 66.8779 78.4994 66.8223 78.135 66.7101C77.7986 66.6089 77.4869 66.4386 77.22 66.2101C76.9545 65.9759 76.7444 65.6856 76.605 65.3601C76.4478 64.9835 76.3712 64.5781 76.38 64.1701C76.382 63.7628 76.4943 63.3637 76.705 63.0151C76.9691 62.5997 77.3337 62.2574 77.765 62.0201C78.365 61.6847 79.0123 61.4419 79.685 61.3001C80.6432 61.0942 81.62 60.987 82.6 60.9801V60.2401C82.6467 59.6267 82.4729 59.0168 82.11 58.5201C81.9275 58.3239 81.7036 58.171 81.4544 58.0723C81.2053 57.9737 80.9373 57.932 80.67 57.9501C80.3051 57.9405 79.9413 57.9947 79.595 58.1101C79.3338 58.2031 79.0825 58.322 78.845 58.4651C78.635 58.5985 78.4517 58.7168 78.295 58.8201C78.1535 58.9219 77.9842 58.9777 77.81 58.9801C77.6859 58.9831 77.5644 58.9444 77.465 58.8701C77.3702 58.7979 77.2904 58.7079 77.23 58.6051L76.88 57.9751ZM94.25 58.4551C94.1986 58.52 94.1398 58.5787 94.075 58.6301C94.0025 58.6778 93.9166 58.7006 93.83 58.6951C93.708 58.6896 93.5908 58.6459 93.495 58.5701C93.3537 58.4716 93.2068 58.3815 93.055 58.3001C92.85 58.1914 92.6359 58.1011 92.415 58.0301C92.1152 57.9397 91.803 57.8975 91.49 57.9051C91.0526 57.8962 90.6187 57.9851 90.22 58.1651C89.8593 58.3336 89.5452 58.5876 89.305 58.9051C89.0468 59.256 88.8583 59.6532 88.75 60.0751C88.6176 60.581 88.5537 61.1023 88.56 61.6251C88.5524 62.1602 88.6198 62.6937 88.76 63.2101C88.8734 63.633 89.0669 64.0302 89.33 64.3801C89.5674 64.6894 89.8762 64.9364 90.23 65.1001C90.6007 65.2671 91.0035 65.3508 91.41 65.3451C91.7631 65.3556 92.1153 65.3032 92.45 65.1901C92.6884 65.1042 92.9165 64.9918 93.13 64.8551C93.2866 64.7526 93.4369 64.6408 93.58 64.5201C93.6802 64.4249 93.8118 64.3697 93.95 64.3651C94.0218 64.3617 94.0933 64.3764 94.158 64.4079C94.2226 64.4393 94.2784 64.4865 94.32 64.5451L94.88 65.2651C94.6544 65.5446 94.3901 65.7904 94.095 65.9951C93.8069 66.1941 93.4965 66.3586 93.17 66.4851C92.8387 66.6131 92.4953 66.7069 92.145 66.7651C91.7865 66.8253 91.4235 66.8554 91.06 66.8551C90.4507 66.8598 89.8469 66.7408 89.285 66.5051C88.739 66.2746 88.2507 65.9263 87.855 65.4851C87.4319 65.0047 87.1074 64.4458 86.9 63.8401C86.6565 63.1275 86.5381 62.3781 86.55 61.6251C86.5432 60.9161 86.6495 60.2106 86.865 59.5351C87.0579 58.9254 87.3745 58.362 87.795 57.8801C88.2141 57.4103 88.7313 57.0382 89.31 56.7901C89.9617 56.5166 90.6633 56.3821 91.37 56.3951C92.027 56.3821 92.6799 56.5011 93.29 56.7451C93.842 56.9776 94.3444 57.3137 94.77 57.7351L94.25 58.4551ZM99.88 66.8751C99.5328 66.8982 99.1845 66.8487 98.8574 66.7299C98.5303 66.6112 98.2315 66.4256 97.98 66.1851C97.5085 65.6414 97.2712 64.9332 97.32 64.2151V58.1351H96.14C96.0357 58.1396 95.9337 58.1038 95.855 58.0351C95.8138 57.9933 95.7822 57.943 95.7624 57.8878C95.7425 57.8325 95.7349 57.7736 95.74 57.7151V56.9251L97.39 56.6951L97.83 53.6651C97.8506 53.562 97.9052 53.4687 97.985 53.4001C98.0702 53.3332 98.1768 53.2995 98.285 53.3051H99.275V56.7151H102.155V58.1351H99.27V64.0851C99.2572 64.2476 99.2772 64.411 99.3287 64.5656C99.3802 64.7202 99.4623 64.8628 99.57 64.9851C99.6687 65.0841 99.7865 65.1618 99.9164 65.2134C100.046 65.265 100.185 65.2894 100.325 65.2851C100.483 65.2886 100.64 65.2649 100.79 65.2151C100.907 65.1747 101.019 65.1228 101.125 65.0601C101.218 65.0035 101.298 64.9518 101.365 64.9051C101.417 64.8641 101.479 64.8397 101.545 64.8351C101.6 64.8317 101.655 64.8476 101.7 64.8801C101.746 64.9218 101.785 64.9708 101.815 65.0251L102.395 65.9651C102.064 66.2652 101.676 66.4963 101.255 66.6451C100.814 66.8021 100.348 66.88 99.88 66.8751ZM121.15 52.3551V66.7151H120.07C119.926 66.7203 119.784 66.6894 119.655 66.6251C119.527 66.5495 119.413 66.4513 119.32 66.3351L111.21 55.8451C111.223 56.0251 111.235 56.2018 111.245 56.3751C111.255 56.5485 111.26 56.7118 111.26 56.8651V66.7151H109.39V52.3551H110.49C110.633 52.3477 110.776 52.3698 110.91 52.4201C111.036 52.494 111.142 52.5969 111.22 52.7201L119.35 63.2151C119.33 63.0218 119.315 62.8335 119.305 62.6501C119.295 62.4668 119.29 62.2951 119.29 62.1351V52.3551H121.15ZM129.47 62.2051C128.793 62.2208 128.118 62.2826 127.45 62.3901C126.986 62.4609 126.532 62.5902 126.1 62.7751C125.805 62.8951 125.547 63.0899 125.35 63.3401C125.198 63.5513 125.118 63.8052 125.12 64.0651C125.114 64.2899 125.157 64.5132 125.245 64.7201C125.322 64.8946 125.438 65.0487 125.585 65.1701C125.732 65.2889 125.902 65.3757 126.085 65.4251C126.29 65.48 126.502 65.5069 126.715 65.5051C126.993 65.5076 127.269 65.4774 127.54 65.4151C127.784 65.3573 128.021 65.2718 128.245 65.1601C128.468 65.0493 128.68 64.9153 128.875 64.7601C129.085 64.5912 129.282 64.4074 129.465 64.2101L129.47 62.2051ZM123.75 57.9751C124.282 57.4577 124.908 57.047 125.595 56.7651C126.291 56.4924 127.033 56.3566 127.78 56.3651C128.307 56.355 128.831 56.452 129.32 56.6501C129.751 56.8302 130.137 57.1034 130.45 57.4501C130.764 57.8037 131.001 58.2193 131.145 58.6701C131.307 59.1775 131.386 59.7076 131.38 60.2401V66.7151H130.51C130.357 66.7246 130.205 66.6917 130.07 66.6201C129.952 66.5321 129.868 66.407 129.83 66.2651L129.62 65.3751C129.376 65.6019 129.119 65.8139 128.85 66.0101C128.6 66.1913 128.334 66.3487 128.055 66.4801C127.772 66.6121 127.475 66.7111 127.17 66.7751C126.828 66.8446 126.479 66.8782 126.13 66.8751C125.749 66.8779 125.369 66.8223 125.005 66.7101C124.669 66.6089 124.357 66.4386 124.09 66.2101C123.825 65.9759 123.614 65.6856 123.475 65.3601C123.318 64.9835 123.241 64.5781 123.25 64.1701C123.252 63.7628 123.364 63.3637 123.575 63.0151C123.839 62.5997 124.204 62.2574 124.635 62.0201C125.235 61.6847 125.882 61.4419 126.555 61.3001C127.513 61.0942 128.49 60.987 129.47 60.9801V60.2401C129.517 59.6267 129.343 59.0168 128.98 58.5201C128.798 58.3239 128.574 58.171 128.324 58.0723C128.075 57.9737 127.807 57.932 127.54 57.9501C127.175 57.9405 126.811 57.9947 126.465 58.1101C126.204 58.2031 125.953 58.322 125.715 58.4651C125.505 58.5985 125.322 58.7168 125.165 58.8201C125.024 58.9219 124.854 58.9777 124.68 58.9801C124.556 58.9831 124.434 58.9444 124.335 58.8701C124.241 58.7994 124.161 58.7111 124.1 58.6101L123.75 57.9751ZM143.5 66.7151H141.54V58.1351H136.44V64.0851C136.427 64.2472 136.446 64.4104 136.496 64.565C136.547 64.7196 136.628 64.8624 136.735 64.9851C136.834 65.0841 136.952 65.1618 137.081 65.2134C137.211 65.265 137.35 65.2894 137.49 65.2851C137.648 65.2886 137.805 65.2649 137.955 65.2151C138.072 65.1747 138.184 65.1228 138.29 65.0601C138.383 65.0035 138.463 64.9518 138.53 64.9051C138.582 64.8641 138.644 64.8397 138.71 64.8351C138.765 64.8317 138.82 64.8476 138.865 64.8801C138.911 64.9218 138.95 64.9708 138.98 65.0251L139.56 65.9651C139.229 66.2652 138.841 66.4963 138.42 66.6451C137.981 66.805 137.517 66.8862 137.05 66.8851C136.703 66.9081 136.355 66.8586 136.027 66.7399C135.7 66.6211 135.402 66.4356 135.15 66.1951C134.915 65.9247 134.736 65.6106 134.623 65.2708C134.51 64.9311 134.465 64.5723 134.49 64.2151V58.1351H133.31C133.206 58.1396 133.104 58.1038 133.025 58.0351C132.984 57.9933 132.952 57.943 132.932 57.8878C132.913 57.8325 132.905 57.7736 132.91 57.7151V56.9251L134.57 56.6951L135 53.6651C135.021 53.562 135.075 53.4687 135.155 53.4001C135.239 53.3344 135.344 53.3007 135.45 53.3051H136.44V56.7151H143.5V66.7151ZM143.94 53.3551C143.941 53.5327 143.903 53.7083 143.83 53.8701C143.757 54.0307 143.656 54.1765 143.53 54.3001C143.405 54.4243 143.258 54.5229 143.095 54.5901C142.93 54.658 142.753 54.692 142.575 54.6901C142.4 54.6927 142.226 54.6586 142.065 54.5901C141.906 54.521 141.762 54.4227 141.64 54.3001C141.517 54.1767 141.418 54.0308 141.35 53.8701C141.28 53.7075 141.244 53.5322 141.245 53.3551C141.244 53.1732 141.28 52.993 141.35 52.8251C141.417 52.6625 141.516 52.5148 141.64 52.3901C141.762 52.2676 141.906 52.1692 142.065 52.1001C142.226 52.0317 142.4 51.9976 142.575 52.0001C142.753 51.9983 142.93 52.0323 143.095 52.1001C143.258 52.1674 143.405 52.2659 143.53 52.3901C143.656 52.515 143.758 52.6626 143.83 52.8251C143.903 52.9921 143.941 53.1727 143.94 53.3551ZM155.15 56.5551L151.03 66.7151H149.27L145.15 56.5551H146.76C146.895 56.5498 147.029 56.5884 147.14 56.6651C147.236 56.7333 147.307 56.8319 147.34 56.9451L149.77 63.1851C149.857 63.4451 149.932 63.7035 149.995 63.9601C150.058 64.2168 150.117 64.4718 150.17 64.7251C150.223 64.4718 150.283 64.2185 150.35 63.9651C150.417 63.7118 150.497 63.4518 150.59 63.1851L153.05 56.9451C153.09 56.8324 153.163 56.7347 153.26 56.6651C153.365 56.5903 153.491 56.5517 153.62 56.5551H155.15ZM163.15 60.5051C163.154 60.1419 163.098 59.7804 162.985 59.4351C162.883 59.1218 162.718 58.8326 162.5 58.5851C162.284 58.3433 162.018 58.1521 161.72 58.0251C161.384 57.8861 161.023 57.818 160.66 57.8251C160.306 57.8053 159.952 57.8581 159.619 57.9802C159.286 58.1023 158.982 58.2911 158.725 58.5351C158.22 59.0776 157.905 59.7686 157.825 60.5051H163.15ZM164.76 65.2651C164.52 65.5454 164.24 65.7896 163.93 65.9901C163.617 66.1933 163.281 66.3594 162.93 66.4851C162.573 66.6127 162.205 66.7064 161.83 66.7651C161.461 66.8245 161.088 66.8546 160.715 66.8551C160.05 66.8616 159.39 66.7411 158.77 66.5001C158.187 66.2692 157.662 65.9143 157.23 65.4601C156.774 64.9716 156.426 64.3923 156.21 63.7601C155.955 63.0087 155.831 62.2187 155.845 61.4251C155.839 60.7526 155.951 60.0842 156.175 59.4501C156.382 58.8616 156.703 58.3196 157.12 57.8551C157.538 57.3956 158.049 57.0308 158.62 56.7851C159.252 56.5174 159.933 56.3845 160.62 56.3951C161.205 56.3875 161.787 56.4892 162.335 56.6951C162.845 56.8896 163.307 57.1915 163.69 57.5801C164.084 57.9896 164.389 58.4766 164.585 59.0101C164.811 59.6314 164.921 60.289 164.91 60.9501C164.927 61.1553 164.893 61.3616 164.81 61.5501C164.767 61.6057 164.71 61.6492 164.645 61.6764C164.581 61.7035 164.51 61.7135 164.44 61.7051H157.78C157.788 62.2434 157.876 62.7774 158.04 63.2901C158.173 63.7044 158.389 64.0872 158.675 64.4151C158.939 64.7113 159.27 64.9408 159.64 65.0851C160.039 65.2364 160.463 65.3111 160.89 65.3051C161.27 65.3125 161.65 65.2619 162.015 65.1551C162.297 65.0691 162.571 64.9604 162.835 64.8301C163.065 64.7135 163.258 64.6051 163.415 64.5051C163.537 64.4172 163.68 64.3652 163.83 64.3551C163.902 64.3517 163.973 64.3664 164.038 64.3979C164.103 64.4293 164.158 64.4765 164.2 64.5351L164.76 65.2651Z" fill="#363636"/>
<path d="M60.445 84.2211V89.7561H67.915V93.6761H60.445V102.176H55.345V80.3211H69.415V84.2211H60.445ZM77.905 95.8461C77.1334 95.8685 76.3646 95.9487 75.605 96.0861C75.112 96.1715 74.6327 96.3229 74.18 96.5361C73.8844 96.6687 73.6321 96.8818 73.452 97.1511C73.3187 97.3784 73.2496 97.6376 73.252 97.9011C73.2294 98.1087 73.2571 98.3187 73.3328 98.5133C73.4085 98.7079 73.53 98.8814 73.687 99.0191C74.0672 99.2588 74.5136 99.3715 74.962 99.3411C75.5048 99.3535 76.0436 99.246 76.54 99.0261C77.0522 98.7703 77.5145 98.4248 77.905 98.0061V95.8461ZM69.535 88.7761C70.4478 87.9624 71.5097 87.3335 72.662 86.9241C73.8459 86.5124 75.0916 86.3068 76.345 86.3161C77.2143 86.3032 78.0778 86.4588 78.888 86.7741C79.6113 87.058 80.2658 87.4926 80.808 88.0491C81.3408 88.6062 81.7521 89.2679 82.016 89.9921C82.3026 90.7802 82.4449 91.6136 82.436 92.4521V102.176H80.306C79.9631 102.196 79.6205 102.134 79.306 101.996C79.0366 101.82 78.8377 101.554 78.744 101.246L78.414 100.391C78.024 100.724 77.649 101.014 77.289 101.261C76.9367 101.507 76.5628 101.721 76.172 101.899C75.7787 102.077 75.3658 102.208 74.942 102.289C74.4649 102.378 73.9803 102.42 73.495 102.416C72.8396 102.424 72.1868 102.331 71.56 102.139C71.0152 101.974 70.5115 101.695 70.082 101.321C69.6704 100.951 69.3498 100.491 69.145 99.9761C68.9148 99.386 68.8027 98.7564 68.815 98.1231C68.8232 97.5318 68.9669 96.9502 69.235 96.4231C69.5757 95.7815 70.077 95.2391 70.69 94.8491C71.548 94.3005 72.4907 93.8975 73.48 93.6561C74.9282 93.3005 76.4138 93.1192 77.905 93.1161V92.4561C77.9686 91.7519 77.7683 91.0491 77.343 90.4841C77.1351 90.2745 76.8848 90.1118 76.6088 90.0069C76.3329 89.9021 76.0376 89.8575 75.743 89.8761C75.2862 89.863 74.8304 89.9237 74.393 90.0561C74.0698 90.1646 73.7564 90.3001 73.456 90.4611C73.1813 90.6111 72.9147 90.7445 72.656 90.8611C72.3628 90.988 72.0454 91.0494 71.726 91.0411C71.4372 91.0506 71.1531 90.9664 70.916 90.8011C70.7016 90.647 70.5183 90.4536 70.376 90.2311L69.535 88.7761ZM95.29 90.0261C95.1956 90.1874 95.0647 90.3244 94.908 90.4261C94.7493 90.5121 94.5703 90.5536 94.39 90.5461C94.1626 90.5447 93.9379 90.4964 93.73 90.4041L93.017 90.0971C92.736 89.9779 92.4481 89.8754 92.155 89.7901C91.7987 89.6904 91.4299 89.6426 91.06 89.6481C90.5834 89.6178 90.1091 89.7355 89.702 89.9851C89.5501 90.0892 89.4272 90.2302 89.3446 90.3947C89.2621 90.5593 89.2226 90.7422 89.23 90.9261C89.2264 91.0612 89.252 91.1954 89.305 91.3196C89.358 91.4439 89.4371 91.5552 89.537 91.6461C89.7791 91.8582 90.0558 92.0274 90.355 92.1461C90.7322 92.3047 91.1178 92.4425 91.51 92.5591C91.94 92.6925 92.38 92.8375 92.83 92.9941C93.2811 93.1547 93.7219 93.3428 94.15 93.5571C94.5712 93.7674 94.9601 94.0368 95.305 94.3571C95.6517 94.6813 95.9298 95.0716 96.123 95.5051C96.34 96.017 96.4447 96.5694 96.43 97.1251C96.4377 97.8564 96.2947 98.5815 96.01 99.2551C95.7299 99.9054 95.3011 100.481 94.758 100.935C94.1526 101.434 93.4541 101.808 92.703 102.035C91.7905 102.306 90.8417 102.435 89.89 102.416C89.3565 102.416 88.8242 102.366 88.3 102.266C87.7786 102.168 87.2649 102.033 86.763 101.861C86.2881 101.7 85.8285 101.496 85.39 101.253C85.003 101.041 84.6408 100.787 84.31 100.495L85.39 98.7851C85.5023 98.5929 85.6595 98.4306 85.848 98.3121C86.0649 98.1892 86.3119 98.1296 86.561 98.1401C86.8148 98.1362 87.0653 98.1982 87.288 98.3201L87.988 98.7101C88.2691 98.8641 88.5624 98.9945 88.865 99.1001C89.2744 99.2314 89.7032 99.2923 90.133 99.2801C90.4418 99.2869 90.75 99.2492 91.048 99.1681C91.2675 99.1089 91.472 99.004 91.648 98.8601C91.7892 98.7417 91.902 98.5931 91.978 98.4251C92.0454 98.2689 92.0795 98.1003 92.078 97.9301C92.0825 97.7876 92.0567 97.6458 92.0024 97.5139C91.9481 97.382 91.8665 97.2632 91.763 97.1651C91.5211 96.9446 91.2417 96.7692 90.938 96.6471C90.5592 96.4902 90.1711 96.3567 89.776 96.2471C89.3407 96.1225 88.8983 95.9798 88.449 95.8191C87.9941 95.6571 87.5508 95.4643 87.122 95.2421C86.6915 95.0206 86.2989 94.732 85.959 94.3871C85.6054 94.0215 85.3254 93.5914 85.134 93.1201C84.9098 92.542 84.8028 91.925 84.819 91.3051C84.8163 90.6583 84.9463 90.0177 85.201 89.4231C85.4609 88.821 85.8529 88.2851 86.348 87.8551C86.9114 87.3724 87.5645 87.0057 88.27 86.7761C89.1418 86.4947 90.0541 86.3596 90.97 86.3761C91.5158 86.3749 92.0606 86.4251 92.597 86.5261C93.1016 86.6202 93.5963 86.7608 94.075 86.9461C94.5152 87.1159 94.9373 87.3293 95.335 87.5831C95.6974 87.8134 96.0343 88.0816 96.34 88.3831L95.29 90.0261ZM104.33 102.416C103.663 102.428 103 102.319 102.372 102.093C101.837 101.895 101.352 101.582 100.952 101.176C100.559 100.768 100.26 100.279 100.075 99.7431C99.8679 99.14 99.7664 98.5057 99.775 97.8681V89.8281H98.455C98.2276 89.8328 98.0072 89.7493 97.84 89.5951C97.7511 89.5063 97.6824 89.3995 97.6384 89.2818C97.5944 89.1642 97.5762 89.0384 97.585 88.9131V87.0981L100.06 86.6181L100.975 82.8231C101.024 82.5973 101.156 82.3981 101.345 82.2648C101.534 82.1315 101.766 82.0738 101.995 82.1031H104.425V86.6481H108.28V89.8281H104.425V97.5561C104.413 97.8742 104.505 98.1876 104.688 98.4481C104.776 98.5644 104.89 98.6574 105.022 98.7188C105.155 98.7801 105.3 98.8081 105.445 98.8001C105.589 98.8033 105.734 98.7855 105.873 98.7471C105.977 98.7167 106.077 98.6766 106.173 98.6271C106.258 98.5818 106.338 98.5418 106.413 98.5071C106.496 98.4703 106.585 98.4522 106.676 98.4541C106.797 98.4488 106.916 98.484 107.014 98.5541C107.118 98.6413 107.207 98.7455 107.276 98.8621L108.686 101.067C108.076 101.521 107.39 101.862 106.66 102.076C105.904 102.303 105.119 102.418 104.33 102.416ZM139.21 91.2411C139.223 92.75 138.945 94.2473 138.392 95.6511C137.871 96.9755 137.088 98.1817 136.092 99.1981C135.073 100.222 133.855 101.027 132.513 101.561C131.036 102.147 129.459 102.437 127.87 102.416C126.279 102.436 124.7 102.146 123.22 101.561C121.875 101.026 120.653 100.222 119.63 99.1981C118.629 98.1836 117.843 96.9771 117.32 95.6511C116.767 94.2473 116.489 92.75 116.502 91.2411C116.489 89.7322 116.767 88.2349 117.32 86.8311C117.842 85.5066 118.628 84.3022 119.63 83.2911C120.655 82.2712 121.876 81.47 123.22 80.9361C124.7 80.3512 126.279 80.0608 127.87 80.0811C129.459 80.0603 131.037 80.3536 132.513 80.9441C133.852 81.4823 135.069 82.2858 136.09 83.3061C137.087 84.3191 137.87 85.5232 138.39 86.8461C138.943 88.2448 139.222 89.737 139.21 91.2411ZM134.02 91.2411C134.034 90.2525 133.892 89.2678 133.6 88.3231C133.352 87.5149 132.941 86.7661 132.392 86.1231C131.864 85.5211 131.205 85.0489 130.465 84.7431C129.639 84.4103 128.755 84.2471 127.865 84.2631C126.969 84.2473 126.079 84.4105 125.247 84.7431C124.504 85.0474 123.842 85.5198 123.312 86.1231C122.763 86.7662 122.353 87.515 122.105 88.3231C121.813 89.2678 121.671 90.2525 121.685 91.2411C121.672 92.2357 121.816 93.2261 122.11 94.1761C122.358 94.9843 122.768 95.7331 123.317 96.3761C123.846 96.9786 124.509 97.4485 125.252 97.7481C126.085 98.076 126.975 98.2367 127.87 98.2211C128.759 98.237 129.643 98.0762 130.47 97.7481C131.209 97.4464 131.867 96.9766 132.392 96.3761C132.941 95.7332 133.352 94.9844 133.6 94.1761C133.893 93.2258 134.034 92.2354 134.02 91.2411ZM146.08 97.9411C146.393 98.295 146.783 98.5721 147.22 98.7511C147.631 98.9113 148.069 98.9928 148.51 98.9911C148.919 98.9957 149.324 98.9085 149.695 98.7361C150.074 98.5504 150.397 98.2687 150.633 97.9191C150.929 97.4738 151.14 96.9779 151.256 96.4561C151.419 95.7378 151.494 95.0025 151.481 94.2661C151.493 93.5718 151.432 92.8781 151.301 92.1961C151.213 91.7183 151.044 91.259 150.801 90.8381C150.618 90.5236 150.351 90.2666 150.029 90.0961C149.718 89.944 149.375 89.867 149.029 89.8711C148.446 89.8485 147.867 89.9778 147.349 90.2461C146.866 90.534 146.439 90.9067 146.089 91.3461L146.08 97.9411ZM145.795 88.5411C146.395 87.8977 147.097 87.3571 147.872 86.9411C148.729 86.5069 149.68 86.2928 150.64 86.3181C151.423 86.3116 152.195 86.497 152.89 86.8581C153.597 87.2333 154.208 87.7673 154.675 88.4181C155.212 89.1755 155.61 90.0219 155.852 90.9181C156.151 92.0102 156.295 93.1389 156.28 94.2711C156.291 95.3702 156.126 96.464 155.792 97.5111C155.496 98.4463 155.034 99.3204 154.427 100.091C153.86 100.807 153.143 101.39 152.327 101.801C151.486 102.217 150.558 102.428 149.62 102.416C148.924 102.436 148.231 102.319 147.58 102.071C147.034 101.843 146.527 101.529 146.08 101.141V107.111H141.43V86.6211H144.31C144.561 86.6 144.811 86.6661 145.019 86.8082C145.227 86.9503 145.379 87.1598 145.45 87.4011L145.795 88.5411ZM168.355 92.5311C168.356 92.1664 168.308 91.8032 168.212 91.4511C168.122 91.1107 167.963 90.792 167.747 90.5141C167.52 90.2291 167.229 90.0005 166.899 89.8461C166.499 89.6657 166.063 89.5785 165.624 89.5911C165.246 89.5697 164.867 89.6257 164.511 89.7559C164.155 89.8861 163.829 90.0876 163.554 90.3481C163.006 90.9553 162.66 91.7178 162.564 92.5301L168.355 92.5311ZM162.505 95.2311C162.547 96.2853 162.968 97.289 163.69 98.0581C164.371 98.6586 165.258 98.9731 166.165 98.9361C166.639 98.9465 167.112 98.8806 167.565 98.7411C167.923 98.6243 168.272 98.4788 168.607 98.3061C168.912 98.1461 169.192 98.0011 169.447 97.8711C169.694 97.7415 169.968 97.6729 170.247 97.6711C170.409 97.6612 170.572 97.6927 170.719 97.7627C170.866 97.8327 170.992 97.9388 171.087 98.0711L172.437 99.7361C171.989 100.259 171.466 100.711 170.884 101.079C170.348 101.415 169.774 101.687 169.174 101.889C168.604 102.081 168.016 102.216 167.419 102.294C166.864 102.367 166.305 102.404 165.746 102.406C164.7 102.414 163.661 102.233 162.679 101.873C161.741 101.529 160.888 100.99 160.174 100.291C159.432 99.5498 158.854 98.6605 158.479 97.6811C158.043 96.5216 157.832 95.2897 157.857 94.0511C157.852 93.0418 158.032 92.04 158.39 91.0961C158.732 90.1872 159.252 89.3559 159.92 88.6511C160.603 87.9423 161.423 87.3793 162.33 86.9961C163.343 86.573 164.432 86.3636 165.53 86.3811C166.494 86.3698 167.451 86.5324 168.357 86.8611C169.184 87.1645 169.936 87.6419 170.562 88.2611C171.195 88.8985 171.686 89.6626 172.002 90.5031C172.361 91.4647 172.536 92.4849 172.52 93.5111C172.524 93.7968 172.509 94.0824 172.475 94.3661C172.457 94.5506 172.4 94.7293 172.31 94.8911C172.237 95.0156 172.123 95.111 171.987 95.1611C171.82 95.216 171.645 95.2414 171.47 95.2361L162.505 95.2311ZM179.14 88.3011C179.436 88.0247 179.746 87.7643 180.07 87.5211C180.389 87.2814 180.734 87.0775 181.098 86.9131C181.479 86.743 181.876 86.6123 182.283 86.5231C182.739 86.4247 183.204 86.3767 183.671 86.3801C184.446 86.3654 185.216 86.5165 185.928 86.8231C186.565 87.1048 187.132 87.525 187.586 88.0531C188.049 88.6026 188.396 89.2405 188.606 89.9281C188.842 90.6933 188.958 91.4904 188.951 92.2911V102.176H184.301V92.2911C184.34 91.6553 184.154 91.026 183.776 90.5131C183.585 90.2952 183.346 90.1244 183.077 90.0139C182.809 89.9035 182.519 89.8563 182.23 89.8761C181.734 89.873 181.244 89.9835 180.797 90.1991C180.326 90.4309 179.888 90.7259 179.497 91.0761V102.176H174.847V86.6211H177.727C177.978 86.6 178.228 86.6661 178.436 86.8082C178.644 86.9503 178.796 87.1598 178.867 87.4011L179.14 88.3011ZM206.965 96.5211C207.088 96.5219 207.21 96.5449 207.325 96.5891C207.455 96.6412 207.573 96.7206 207.67 96.8221L209.68 98.9371C208.818 100.072 207.679 100.967 206.373 101.537C204.884 102.153 203.284 102.452 201.673 102.414C200.143 102.439 198.624 102.151 197.21 101.566C195.941 101.033 194.801 100.236 193.865 99.2261C192.931 98.2001 192.215 96.996 191.758 95.6861C191.257 94.2575 191.009 92.7528 191.023 91.2391C191.007 89.7047 191.279 88.1809 191.823 86.7461C192.322 85.4297 193.082 84.2279 194.058 83.2131C195.035 82.2117 196.21 81.425 197.508 80.9031C198.914 80.3402 200.416 80.0592 201.93 80.0761C202.708 80.0723 203.484 80.1453 204.247 80.2941C204.942 80.4301 205.623 80.631 206.28 80.8941C206.891 81.1392 207.474 81.4486 208.02 81.8171C208.528 82.1589 209 82.5508 209.43 82.9871L207.72 85.2871C207.607 85.4307 207.476 85.5594 207.33 85.6701C207.145 85.7957 206.923 85.8565 206.7 85.8431C206.523 85.8438 206.348 85.8027 206.19 85.7231C206.015 85.6347 205.845 85.5373 205.68 85.4311C205.5 85.3165 205.303 85.1915 205.088 85.0561C204.845 84.9075 204.589 84.7819 204.323 84.6811C203.987 84.5546 203.641 84.4569 203.288 84.3891C202.83 84.3035 202.365 84.2633 201.9 84.2691C201.109 84.2596 200.325 84.4181 199.6 84.7341C198.905 85.0444 198.289 85.5088 197.8 86.0921C197.268 86.737 196.87 87.4815 196.63 88.2821C196.341 89.2427 196.202 90.2421 196.217 91.2451C196.2 92.2588 196.355 93.268 196.675 94.2301C196.943 95.0373 197.366 95.7845 197.92 96.4301C198.426 97.0115 199.054 97.475 199.758 97.7881C200.467 98.1 201.234 98.2584 202.008 98.2531C202.426 98.2518 202.845 98.2261 203.26 98.1761C203.621 98.1351 203.978 98.0598 204.325 97.9511C204.65 97.8482 204.963 97.7072 205.255 97.5311C205.57 97.3369 205.867 97.1132 206.14 96.8631C206.259 96.7642 206.39 96.6811 206.53 96.6161C206.666 96.5529 206.815 96.5204 206.965 96.5211ZM231.505 80.3211L222.745 102.176H218.155L209.395 80.3211H213.475C213.854 80.3031 214.229 80.4114 214.54 80.6291C214.81 80.834 215.022 81.1056 215.155 81.4171L219.385 93.1171C219.585 93.6271 219.78 94.1845 219.97 94.7891C220.16 95.3938 220.34 96.0271 220.51 96.6891C220.65 96.0291 220.807 95.3958 220.982 94.7891C221.157 94.1825 221.344 93.6251 221.545 93.1171L225.745 81.4171C225.871 81.116 226.075 80.8542 226.337 80.6591C226.64 80.4285 227.013 80.3094 227.394 80.3221L231.505 80.3211Z" fill="#363636"/>
<path d="M688.315 74.714C683.849 72.1356 680.359 68.1556 678.385 63.3912C676.412 58.6269 676.066 53.3445 677.4 48.3634C678.735 43.3822 681.676 38.9807 685.767 35.8414C689.858 32.7021 694.871 31.0005 700.028 31.0005C705.185 31.0005 710.198 32.7021 714.289 35.8414C718.38 38.9807 721.321 43.3822 722.656 48.3634C723.99 53.3445 723.644 58.6269 721.671 63.3912C719.697 68.1556 716.207 72.1356 711.741 74.714L704.688 62.497C706.465 61.4712 707.853 59.8877 708.639 57.9923C709.424 56.0968 709.561 53.9952 709.03 52.0135C708.499 50.0317 707.329 48.2806 705.702 47.0316C704.074 45.7826 702.08 45.1056 700.028 45.1056C697.976 45.1056 695.982 45.7826 694.354 47.0316C692.727 48.2806 691.557 50.0317 691.026 52.0135C690.495 53.9952 690.632 56.0968 691.417 57.9923C692.203 59.8877 693.591 61.4712 695.368 62.497L688.315 74.714Z" fill="#409DED"/>
<path d="M738.494 80.398C742.96 82.9764 746.45 86.9564 748.424 91.7208C750.397 96.4851 750.743 101.767 749.409 106.749C748.074 111.73 745.133 116.131 741.042 119.271C736.951 122.41 731.938 124.112 726.781 124.112C721.624 124.112 716.611 122.41 712.52 119.271C708.429 116.131 705.488 111.73 704.153 106.749C702.819 101.767 703.165 96.4851 705.138 91.7208C707.112 86.9564 710.602 82.9764 715.068 80.398L722.121 92.612C720.344 93.6378 718.956 95.2213 718.17 97.1167C717.385 99.0122 717.248 101.114 717.779 103.096C718.31 105.077 719.48 106.828 721.107 108.077C722.735 109.326 724.729 110.003 726.781 110.003C728.833 110.003 730.827 109.326 732.455 108.077C734.082 106.828 735.252 105.077 735.783 103.096C736.314 101.114 736.177 99.0122 735.392 97.1167C734.606 95.2213 733.218 93.6378 731.441 92.612L738.494 80.398Z" fill="#409DED"/>
<path d="M697.224 100.683C697.224 105.841 695.522 110.854 692.382 114.945C689.243 119.037 684.841 121.978 679.859 123.312C674.877 124.647 669.595 124.301 664.83 122.327C660.065 120.353 656.085 116.862 653.507 112.396C650.928 107.929 649.895 102.737 650.569 97.6237C651.242 92.5105 653.584 87.7624 657.231 84.1158C660.878 80.4691 665.626 78.1277 670.739 77.4548C675.852 76.7818 681.045 77.8148 685.511 80.3936L678.457 92.6108C676.68 91.5849 674.615 91.174 672.581 91.4417C670.547 91.7094 668.658 92.6408 667.207 94.0915C665.756 95.5422 664.825 97.4311 664.557 99.4652C664.289 101.499 664.7 103.565 665.725 105.342C666.751 107.119 668.335 108.507 670.23 109.292C672.125 110.078 674.227 110.215 676.209 109.685C678.191 109.154 679.942 107.984 681.191 106.356C682.44 104.728 683.117 102.734 683.117 100.682L697.224 100.683Z" fill="#409DED"/>
<path d="M527.105 87.809C532.056 87.809 536.07 83.7952 536.07 78.844C536.07 73.8928 532.056 69.879 527.105 69.879C522.154 69.879 518.14 73.8928 518.14 78.844C518.14 83.7952 522.154 87.809 527.105 87.809Z" fill="#409DED"/>
<path d="M527.104 97.21C553.671 97.21 575.208 88.9868 575.208 78.843C575.208 68.6992 553.671 60.476 527.104 60.476C500.537 60.476 479 68.6992 479 78.843C479 88.9868 500.537 97.21 527.104 97.21Z" stroke="#409DED" stroke-width="4"/>
<path d="M511.198 88.0263C524.482 111.034 542.372 125.574 551.157 120.502C559.942 115.43 556.295 92.6671 543.011 69.6593C529.727 46.6515 511.838 32.1116 503.053 37.1835C494.268 42.2554 497.915 65.0185 511.198 88.0263Z" stroke="#409DED" stroke-width="4"/>
<path d="M511.198 69.6593C497.915 92.6671 494.268 115.43 503.053 120.502C511.838 125.574 529.727 111.034 543.011 88.0263C556.295 65.0185 559.942 42.2554 551.157 37.1835C542.372 32.1116 524.482 46.6515 511.198 69.6593Z" stroke="#409DED" stroke-width="4"/>
<path d="M612 48.114V103.114" stroke="#CBCBCB"/>
<path d="M240.919 74.0909L243.556 82.3793H243.657L246.299 74.0909H248.856L245.095 85H242.123L238.357 74.0909H240.919ZM254.851 74.0909V85H252.545V76.2802H252.481L249.982 77.8462V75.8008L252.683 74.0909H254.851Z" fill="#409DED"/>
<defs>
<linearGradient id="paint0_linear_108_1374" x1="0" y1="0" x2="808.5" y2="166" gradientUnits="userSpaceOnUse">
<stop stop-color="#F6F6F6"/>
<stop offset="1" stop-color="#D7D7D7"/>
</linearGradient>
</defs>
</svg>
