<svg id="Component_8_1" data-name="Component 8 – 1" xmlns="http://www.w3.org/2000/svg" xmlns:xlink="http://www.w3.org/1999/xlink" width="800" height="164" viewBox="0 0 800 164">
  <defs>
    <linearGradient id="linear-gradient" x1="-0.075" y1="0.048" x2="1" y2="1" gradientUnits="objectBoundingBox">
      <stop offset="0" stop-color="#fdfdfd"/>
      <stop offset="1" stop-color="#eaeaea"/>
    </linearGradient>
  </defs>
  <rect id="Rectangle_96" data-name="Rectangle 96" width="800" height="164" rx="20" fill="url(#linear-gradient)"/>
  <g id="opencv-icon" transform="translate(644.042 34.156)">
    <path id="Path_16" data-name="Path 16" d="M.451,32.451a23.426,23.426,0,1,1,23.426,0L16.824,20.234a9.32,9.32,0,1,0-9.32,0Z" transform="translate(46.072 11.263)" fill="#409ded"/>
    <path id="Path_17" data-name="Path 17" d="M11.715,43.714a23.426,23.426,0,1,1,23.426,0L28.088,31.5a9.32,9.32,0,1,0-9.32,0Z" transform="translate(108.417 93.112) rotate(180)" fill="#409ded"/>
    <path id="Path_18" data-name="Path 18" d="M11.716,43.717a23.428,23.428,0,1,1,23.428,0L28.09,31.5a9.32,9.32,0,1,0-9.32,0Z" transform="translate(23.429 101.687) rotate(-119.998)" fill="#409ded"/>
  </g>
  <g id="React-icon" transform="translate(481.25 31.156)">
    <circle id="Ellipse_7" data-name="Ellipse 7" cx="8.965" cy="8.965" r="8.965" transform="translate(39.14 41.879)" fill="#409ded"/>
    <g id="Group_3" data-name="Group 3">
      <ellipse id="Ellipse_8" data-name="Ellipse 8" cx="48.104" cy="18.367" rx="48.104" ry="18.367" transform="translate(0 32.476)" fill="none" stroke="#409ded" stroke-width="4"/>
      <ellipse id="Ellipse_9" data-name="Ellipse 9" cx="48.104" cy="18.367" rx="48.104" ry="18.367" transform="translate(39.959) rotate(60)" fill="none" stroke="#409ded" stroke-width="4"/>
      <ellipse id="Ellipse_10" data-name="Ellipse 10" cx="48.104" cy="18.367" rx="48.104" ry="18.367" transform="translate(88.063 18.367) rotate(120)" fill="none" stroke="#409ded" stroke-width="4"/>
    </g>
  </g>
  <line id="Line_4" data-name="Line 4" y2="55" transform="translate(614.25 51.27)" fill="none" stroke="#cbcbcb" stroke-width="1"/>
  <g id="Component_7_1" data-name="Component 7 – 1" transform="translate(53.021 56.55)">
    <path id="Path_20" data-name="Path 20" d="M5.84-7.44a4.745,4.745,0,0,0,1.445-.2A2.933,2.933,0,0,0,8.33-8.2a2.319,2.319,0,0,0,.63-.87,2.876,2.876,0,0,0,.21-1.115,2.218,2.218,0,0,0-.815-1.87,3.962,3.962,0,0,0-2.445-.63H3.9v5.25ZM12.54,0h-1.9a.888.888,0,0,1-.83-.45L6.26-5.43a1.058,1.058,0,0,0-.37-.355,1.334,1.334,0,0,0-.6-.105H3.9V0H1.77V-14.36H5.91a8.85,8.85,0,0,1,2.395.285,4.652,4.652,0,0,1,1.66.81A3.221,3.221,0,0,1,10.935-12a4.2,4.2,0,0,1,.315,1.66,4.255,4.255,0,0,1-.23,1.41,3.7,3.7,0,0,1-.675,1.185,4.253,4.253,0,0,1-1.085.9,5.32,5.32,0,0,1-1.45.58,2.2,2.2,0,0,1,.69.67Zm7.51-6.21a3.334,3.334,0,0,0-.165-1.07,2.43,2.43,0,0,0-.485-.85,2.2,2.2,0,0,0-.78-.56,2.637,2.637,0,0,0-1.06-.2,2.6,2.6,0,0,0-1.935.71,3.435,3.435,0,0,0-.9,1.97Zm1.61,4.76a3.84,3.84,0,0,1-.83.725,4.816,4.816,0,0,1-1,.495,6.064,6.064,0,0,1-1.095.28A7.08,7.08,0,0,1,17.62.14a5.228,5.228,0,0,1-1.945-.355,4.323,4.323,0,0,1-1.55-1.04,4.743,4.743,0,0,1-1.02-1.7A6.882,6.882,0,0,1,12.74-5.29a5.779,5.779,0,0,1,.33-1.975,4.753,4.753,0,0,1,.945-1.595A4.357,4.357,0,0,1,15.52-9.93a4.933,4.933,0,0,1,2-.39,4.7,4.7,0,0,1,1.715.3,3.809,3.809,0,0,1,1.355.885,4.1,4.1,0,0,1,.9,1.43,5.4,5.4,0,0,1,.325,1.94,1.237,1.237,0,0,1-.1.6A.407.407,0,0,1,21.34-5H14.68a5.488,5.488,0,0,0,.26,1.585,3.2,3.2,0,0,0,.635,1.125,2.523,2.523,0,0,0,.965.67,3.393,3.393,0,0,0,1.25.22,3.753,3.753,0,0,0,1.125-.15,5.455,5.455,0,0,0,.82-.325q.345-.175.58-.325a.8.8,0,0,1,.415-.15.429.429,0,0,1,.37.18Zm7.71-3.06a14.88,14.88,0,0,0-2.02.185A5.557,5.557,0,0,0,26-3.94a1.833,1.833,0,0,0-.75.565,1.226,1.226,0,0,0-.23.725,1.573,1.573,0,0,0,.125.655,1.22,1.22,0,0,0,.34.45,1.363,1.363,0,0,0,.505.255,2.362,2.362,0,0,0,.63.08,3.535,3.535,0,0,0,.825-.09,3.284,3.284,0,0,0,.7-.255,3.546,3.546,0,0,0,.63-.4,5.61,5.61,0,0,0,.59-.55ZM23.65-8.74A5.813,5.813,0,0,1,25.5-9.95a5.806,5.806,0,0,1,2.185-.4,3.9,3.9,0,0,1,1.54.285,3.168,3.168,0,0,1,1.13.8,3.382,3.382,0,0,1,.695,1.22,4.974,4.974,0,0,1,.235,1.57V0h-.87a.83.83,0,0,1-.44-.095.655.655,0,0,1-.24-.355l-.21-.89a8.41,8.41,0,0,1-.77.635,4.931,4.931,0,0,1-.795.47A4.06,4.06,0,0,1,27.07.06a5.007,5.007,0,0,1-1.04.1,3.732,3.732,0,0,1-1.125-.165,2.527,2.527,0,0,1-.915-.5,2.387,2.387,0,0,1-.615-.85,2.926,2.926,0,0,1-.225-1.19A2.254,2.254,0,0,1,23.475-3.7a2.929,2.929,0,0,1,1.06-.995,6.815,6.815,0,0,1,1.92-.72,14.353,14.353,0,0,1,2.915-.32v-.74a2.583,2.583,0,0,0-.49-1.72,1.8,1.8,0,0,0-1.44-.57,3.137,3.137,0,0,0-1.075.16,4.146,4.146,0,0,0-.75.355q-.315.2-.55.355a.851.851,0,0,1-.485.16.554.554,0,0,1-.345-.11A.917.917,0,0,1,24-8.11Zm17.37.48a1.081,1.081,0,0,1-.175.175.4.4,0,0,1-.245.065.582.582,0,0,1-.335-.125,4.409,4.409,0,0,0-.44-.27,3.933,3.933,0,0,0-.64-.27,2.955,2.955,0,0,0-.925-.125,2.94,2.94,0,0,0-1.27.26,2.445,2.445,0,0,0-.915.74,3.4,3.4,0,0,0-.555,1.17,5.84,5.84,0,0,0-.19,1.55,5.739,5.739,0,0,0,.2,1.585,3.422,3.422,0,0,0,.57,1.17,2.411,2.411,0,0,0,.9.72,2.779,2.779,0,0,0,1.18.245,2.974,2.974,0,0,0,1.04-.155,3.4,3.4,0,0,0,.68-.335,4.647,4.647,0,0,0,.45-.335.564.564,0,0,1,.37-.155.429.429,0,0,1,.37.18l.56.72a3.772,3.772,0,0,1-.785.73,4.471,4.471,0,0,1-.925.49,5.225,5.225,0,0,1-1.025.28A6.529,6.529,0,0,1,37.83.14a4.5,4.5,0,0,1-1.775-.35,4.022,4.022,0,0,1-1.43-1.02,4.882,4.882,0,0,1-.955-1.645,6.531,6.531,0,0,1-.35-2.215,6.668,6.668,0,0,1,.315-2.09,4.651,4.651,0,0,1,.93-1.655,4.3,4.3,0,0,1,1.515-1.09,5.081,5.081,0,0,1,2.06-.395,4.908,4.908,0,0,1,1.92.35,4.69,4.69,0,0,1,1.48.99ZM46.65.16a2.509,2.509,0,0,1-1.9-.69A2.725,2.725,0,0,1,44.09-2.5V-8.58H42.91a.407.407,0,0,1-.285-.1A.406.406,0,0,1,42.51-9v-.79l1.65-.23.44-3.03a.471.471,0,0,1,.155-.265.448.448,0,0,1,.3-.095h.99V-10h2.88v1.42H46.04v5.95a1.217,1.217,0,0,0,.3.9,1.022,1.022,0,0,0,.755.3,1.379,1.379,0,0,0,.465-.07,1.854,1.854,0,0,0,.335-.155q.14-.085.24-.155a.325.325,0,0,1,.18-.07.239.239,0,0,1,.155.045.561.561,0,0,1,.115.145l.58.94a3.369,3.369,0,0,1-1.14.68A3.978,3.978,0,0,1,46.65.16ZM67.92-14.36V0H66.84a.859.859,0,0,1-.415-.09,1.23,1.23,0,0,1-.335-.29L57.98-10.87q.02.27.035.53t.015.49V0H56.16V-14.36h1.1a1.042,1.042,0,0,1,.42.065.916.916,0,0,1,.31.3L66.12-3.5q-.03-.29-.045-.565T66.06-4.58v-9.78Zm8.32,9.85a14.88,14.88,0,0,0-2.02.185,5.557,5.557,0,0,0-1.35.385,1.833,1.833,0,0,0-.75.565,1.226,1.226,0,0,0-.23.725,1.573,1.573,0,0,0,.125.655,1.22,1.22,0,0,0,.34.45,1.363,1.363,0,0,0,.5.255,2.363,2.363,0,0,0,.63.08,3.535,3.535,0,0,0,.825-.09,3.284,3.284,0,0,0,.705-.255,3.546,3.546,0,0,0,.63-.4,5.61,5.61,0,0,0,.59-.55ZM70.52-8.74a5.813,5.813,0,0,1,1.845-1.21,5.806,5.806,0,0,1,2.185-.4,3.9,3.9,0,0,1,1.54.285,3.168,3.168,0,0,1,1.13.8,3.382,3.382,0,0,1,.695,1.22,4.974,4.974,0,0,1,.235,1.57V0h-.87a.83.83,0,0,1-.44-.095A.655.655,0,0,1,76.6-.45l-.21-.89a8.411,8.411,0,0,1-.77.635,4.931,4.931,0,0,1-.795.47A4.06,4.06,0,0,1,73.94.06a5.007,5.007,0,0,1-1.04.1,3.732,3.732,0,0,1-1.125-.165,2.527,2.527,0,0,1-.915-.5,2.387,2.387,0,0,1-.615-.85,2.926,2.926,0,0,1-.225-1.19A2.254,2.254,0,0,1,70.345-3.7a2.929,2.929,0,0,1,1.06-.995,6.815,6.815,0,0,1,1.92-.72,14.353,14.353,0,0,1,2.915-.32v-.74a2.583,2.583,0,0,0-.49-1.72,1.8,1.8,0,0,0-1.44-.57,3.137,3.137,0,0,0-1.075.16,4.146,4.146,0,0,0-.75.355q-.315.2-.55.355a.851.851,0,0,1-.485.16.554.554,0,0,1-.345-.11.917.917,0,0,1-.235-.26ZM90.27,0H88.31V-8.58h-5.1v5.95a1.217,1.217,0,0,0,.295.9,1.022,1.022,0,0,0,.755.3,1.379,1.379,0,0,0,.465-.07,1.854,1.854,0,0,0,.335-.155q.14-.085.24-.155a.325.325,0,0,1,.18-.07.239.239,0,0,1,.155.045.561.561,0,0,1,.115.145l.58.94a3.369,3.369,0,0,1-1.14.68,3.978,3.978,0,0,1-1.37.24,2.51,2.51,0,0,1-1.9-.69A2.725,2.725,0,0,1,81.26-2.5V-8.58H80.08a.407.407,0,0,1-.285-.1A.406.406,0,0,1,79.68-9v-.79l1.66-.23.43-3.03a.471.471,0,0,1,.155-.265.448.448,0,0,1,.295-.095h.99V-10h7.06Zm.44-13.36a1.243,1.243,0,0,1-.11.515,1.431,1.431,0,0,1-.3.43,1.344,1.344,0,0,1-.435.29,1.33,1.33,0,0,1-.52.1,1.258,1.258,0,0,1-.51-.1,1.376,1.376,0,0,1-.425-.29,1.359,1.359,0,0,1-.29-.43,1.294,1.294,0,0,1-.105-.515,1.355,1.355,0,0,1,.105-.53,1.344,1.344,0,0,1,.29-.435,1.376,1.376,0,0,1,.425-.29,1.258,1.258,0,0,1,.51-.1,1.33,1.33,0,0,1,.52.1,1.344,1.344,0,0,1,.435.29,1.414,1.414,0,0,1,.3.435A1.3,1.3,0,0,1,90.71-13.36Zm11.21,3.2L97.8,0H96.04L91.92-10.16h1.61a.626.626,0,0,1,.38.11.524.524,0,0,1,.2.28l2.43,6.24q.13.39.225.775t.175.765q.08-.38.18-.76t.24-.78l2.46-6.24a.581.581,0,0,1,.21-.28.592.592,0,0,1,.36-.11Zm8,3.95a3.334,3.334,0,0,0-.165-1.07,2.43,2.43,0,0,0-.485-.85,2.2,2.2,0,0,0-.78-.56,2.637,2.637,0,0,0-1.06-.2,2.6,2.6,0,0,0-1.935.71,3.435,3.435,0,0,0-.9,1.97Zm1.61,4.76a3.84,3.84,0,0,1-.83.725,4.816,4.816,0,0,1-1,.495,6.064,6.064,0,0,1-1.1.28,7.08,7.08,0,0,1-1.115.09,5.228,5.228,0,0,1-1.945-.355A4.323,4.323,0,0,1,104-1.255a4.743,4.743,0,0,1-1.02-1.7,6.882,6.882,0,0,1-.365-2.335,5.779,5.779,0,0,1,.33-1.975,4.753,4.753,0,0,1,.945-1.595,4.357,4.357,0,0,1,1.5-1.07,4.933,4.933,0,0,1,2-.39,4.7,4.7,0,0,1,1.715.3,3.808,3.808,0,0,1,1.355.885,4.1,4.1,0,0,1,.895,1.43,5.4,5.4,0,0,1,.325,1.94,1.237,1.237,0,0,1-.1.6.407.407,0,0,1-.37.155h-6.66a5.488,5.488,0,0,0,.26,1.585,3.2,3.2,0,0,0,.635,1.125,2.523,2.523,0,0,0,.965.67,3.393,3.393,0,0,0,1.25.22,3.753,3.753,0,0,0,1.125-.15,5.455,5.455,0,0,0,.82-.325q.345-.175.58-.325a.8.8,0,0,1,.415-.15.429.429,0,0,1,.37.18Z" transform="translate(-1.77 14.72)" fill="#363636"/>
    <path id="Path_19" data-name="Path 19" d="M7.215-17.955v5.535h7.47V-8.5H7.215V0h-5.1V-21.855h14.07v3.9ZM24.675-6.33a15.438,15.438,0,0,0-2.3.24,5.575,5.575,0,0,0-1.425.45,1.725,1.725,0,0,0-.728.615,1.456,1.456,0,0,0-.2.75,1.3,1.3,0,0,0,.435,1.118,2.122,2.122,0,0,0,1.275.322A3.689,3.689,0,0,0,23.31-3.15a4.8,4.8,0,0,0,1.365-1.02ZM16.305-13.4a9.456,9.456,0,0,1,3.127-1.852,10.964,10.964,0,0,1,3.683-.608,6.735,6.735,0,0,1,2.543.458,5.472,5.472,0,0,1,1.92,1.275,5.571,5.571,0,0,1,1.208,1.943,6.981,6.981,0,0,1,.42,2.46V0h-2.13a2.179,2.179,0,0,1-1-.18,1.375,1.375,0,0,1-.562-.75l-.33-.855q-.585.5-1.125.87a7.13,7.13,0,0,1-1.117.638,5.519,5.519,0,0,1-1.23.39A7.57,7.57,0,0,1,20.265.24,6.347,6.347,0,0,1,18.33-.037a4.037,4.037,0,0,1-1.478-.818A3.6,3.6,0,0,1,15.915-2.2a4.841,4.841,0,0,1-.33-1.853,3.867,3.867,0,0,1,.42-1.7A4.2,4.2,0,0,1,17.46-7.327,9.247,9.247,0,0,1,20.25-8.52a18.721,18.721,0,0,1,4.425-.54v-.66a2.852,2.852,0,0,0-.562-1.972,2.069,2.069,0,0,0-1.6-.608,4.238,4.238,0,0,0-1.35.18,6.069,6.069,0,0,0-.937.405q-.412.225-.8.4a2.2,2.2,0,0,1-.93.18,1.34,1.34,0,0,1-.81-.24,2.087,2.087,0,0,1-.54-.57ZM42.06-12.15a1.2,1.2,0,0,1-.382.4,1,1,0,0,1-.518.12,1.653,1.653,0,0,1-.66-.142l-.713-.307a7.763,7.763,0,0,0-.862-.307,3.85,3.85,0,0,0-1.095-.142,2.316,2.316,0,0,0-1.358.337A1.088,1.088,0,0,0,36-11.25a.94.94,0,0,0,.307.72,2.821,2.821,0,0,0,.818.5,11.275,11.275,0,0,0,1.155.413q.645.2,1.32.435a11.754,11.754,0,0,1,1.32.563,4.937,4.937,0,0,1,1.155.8,3.549,3.549,0,0,1,.818,1.148,3.886,3.886,0,0,1,.307,1.62,5.327,5.327,0,0,1-.42,2.13,4.523,4.523,0,0,1-1.252,1.68,5.923,5.923,0,0,1-2.055,1.1A9.257,9.257,0,0,1,36.66.24,8.558,8.558,0,0,1,35.07.09a11.013,11.013,0,0,1-1.537-.405A8.376,8.376,0,0,1,32.16-.923a5.952,5.952,0,0,1-1.08-.758l1.08-1.71a1.382,1.382,0,0,1,.458-.473,1.331,1.331,0,0,1,.713-.172,1.467,1.467,0,0,1,.727.18l.7.39a5.814,5.814,0,0,0,.877.39,3.8,3.8,0,0,0,1.268.18,3.22,3.22,0,0,0,.915-.112,1.612,1.612,0,0,0,.6-.308,1.228,1.228,0,0,0,.33-.435,1.223,1.223,0,0,0,.1-.495,1.01,1.01,0,0,0-.315-.765,2.744,2.744,0,0,0-.825-.518,10.058,10.058,0,0,0-1.162-.4q-.653-.187-1.327-.428a10.663,10.663,0,0,1-1.327-.577,4.567,4.567,0,0,1-1.163-.855,3.973,3.973,0,0,1-.825-1.267,4.682,4.682,0,0,1-.315-1.815,4.729,4.729,0,0,1,.382-1.882,4.371,4.371,0,0,1,1.147-1.568A5.634,5.634,0,0,1,35.04-15.4a8.3,8.3,0,0,1,2.7-.4,8.68,8.68,0,0,1,1.627.15,8.317,8.317,0,0,1,1.478.42,7.076,7.076,0,0,1,1.26.637,6.051,6.051,0,0,1,1.005.8ZM51.1.24a5.484,5.484,0,0,1-1.958-.323A3.888,3.888,0,0,1,47.722-1a3.9,3.9,0,0,1-.877-1.433,5.545,5.545,0,0,1-.3-1.875v-8.04h-1.32a.881.881,0,0,1-.615-.233.877.877,0,0,1-.255-.682v-1.815l2.475-.48.915-3.795a.924.924,0,0,1,1.02-.72h2.43v4.545H55.05v3.18H51.195V-4.62a1.454,1.454,0,0,0,.263.892.887.887,0,0,0,.757.352,1.489,1.489,0,0,0,.428-.053,1.7,1.7,0,0,0,.3-.12q.127-.068.24-.12a.615.615,0,0,1,.263-.053.541.541,0,0,1,.338.1,1.207,1.207,0,0,1,.262.308l1.41,2.205A6.417,6.417,0,0,1,53.43-.1,8.047,8.047,0,0,1,51.1.24ZM85.98-10.935a11.746,11.746,0,0,1-.818,4.41,10.629,10.629,0,0,1-2.3,3.547A10.559,10.559,0,0,1,79.283-.615,12.166,12.166,0,0,1,74.64.24a12.223,12.223,0,0,1-4.65-.855A10.623,10.623,0,0,1,66.4-2.978a10.571,10.571,0,0,1-2.31-3.547,11.746,11.746,0,0,1-.818-4.41,11.746,11.746,0,0,1,.818-4.41,10.49,10.49,0,0,1,2.31-3.54A10.68,10.68,0,0,1,69.99-21.24a12.223,12.223,0,0,1,4.65-.855,12.073,12.073,0,0,1,4.643.863A10.708,10.708,0,0,1,82.86-18.87a10.547,10.547,0,0,1,2.3,3.54A11.7,11.7,0,0,1,85.98-10.935Zm-5.19,0a9.449,9.449,0,0,0-.42-2.918,6.179,6.179,0,0,0-1.208-2.2,5.207,5.207,0,0,0-1.927-1.38,6.634,6.634,0,0,0-2.6-.48,6.731,6.731,0,0,0-2.618.48,5.194,5.194,0,0,0-1.935,1.38,6.179,6.179,0,0,0-1.207,2.2,9.449,9.449,0,0,0-.42,2.918A9.5,9.5,0,0,0,68.88-8a6.179,6.179,0,0,0,1.207,2.2,5.122,5.122,0,0,0,1.935,1.372,6.825,6.825,0,0,0,2.618.473,6.726,6.726,0,0,0,2.6-.473A5.134,5.134,0,0,0,79.162-5.8,6.179,6.179,0,0,0,80.37-8,9.5,9.5,0,0,0,80.79-10.935Zm12.06,6.7a3.08,3.08,0,0,0,1.14.81,3.517,3.517,0,0,0,1.29.24,2.74,2.74,0,0,0,1.185-.255,2.415,2.415,0,0,0,.938-.817,4.354,4.354,0,0,0,.623-1.463,9.161,9.161,0,0,0,.225-2.19,10.075,10.075,0,0,0-.18-2.07,4.264,4.264,0,0,0-.5-1.358,1.951,1.951,0,0,0-.772-.742,2.216,2.216,0,0,0-1-.225,3.369,3.369,0,0,0-1.68.375,4.672,4.672,0,0,0-1.26,1.1Zm-.285-9.4a8.034,8.034,0,0,1,2.077-1.6,5.784,5.784,0,0,1,2.768-.623,4.791,4.791,0,0,1,2.25.54,5.185,5.185,0,0,1,1.785,1.56,7.872,7.872,0,0,1,1.177,2.5,12.069,12.069,0,0,1,.428,3.353,10.334,10.334,0,0,1-.488,3.24,8.141,8.141,0,0,1-1.365,2.58,6.288,6.288,0,0,1-2.1,1.71A5.939,5.939,0,0,1,96.39.24a5.3,5.3,0,0,1-2.04-.345,5.539,5.539,0,0,1-1.5-.93v5.97H88.2v-20.49h2.88a1.093,1.093,0,0,1,1.14.78Zm22.56,3.99a4.1,4.1,0,0,0-.143-1.08,2.618,2.618,0,0,0-.465-.937,2.366,2.366,0,0,0-.848-.668,2.9,2.9,0,0,0-1.275-.255,2.782,2.782,0,0,0-2.07.757,3.947,3.947,0,0,0-.99,2.182Zm-5.85,2.7a4.385,4.385,0,0,0,1.185,2.827,3.526,3.526,0,0,0,2.475.878,4.43,4.43,0,0,0,1.4-.195,7.037,7.037,0,0,0,1.042-.435q.458-.24.84-.435a1.744,1.744,0,0,1,.8-.2.961.961,0,0,1,.84.4l1.35,1.665a6.912,6.912,0,0,1-1.553,1.343,8.068,8.068,0,0,1-1.71.81,9.269,9.269,0,0,1-1.755.405,13.17,13.17,0,0,1-1.673.112,8.733,8.733,0,0,1-3.067-.533,7.049,7.049,0,0,1-2.505-1.582,7.467,7.467,0,0,1-1.695-2.61,9.752,9.752,0,0,1-.622-3.63,8.215,8.215,0,0,1,.533-2.955,7.278,7.278,0,0,1,1.53-2.445A7.285,7.285,0,0,1,109.1-15.18a7.971,7.971,0,0,1,3.2-.615,8.009,8.009,0,0,1,2.827.48,6.147,6.147,0,0,1,2.205,1.4,6.367,6.367,0,0,1,1.44,2.242,8.229,8.229,0,0,1,.518,3.008,6.565,6.565,0,0,1-.045.855,1.353,1.353,0,0,1-.165.525.628.628,0,0,1-.323.27,1.51,1.51,0,0,1-.517.075Zm16.635-6.93a11.3,11.3,0,0,1,.93-.78,5.447,5.447,0,0,1,1.028-.608,6.1,6.1,0,0,1,1.185-.39,6.359,6.359,0,0,1,1.388-.143,5.446,5.446,0,0,1,2.257.443,4.685,4.685,0,0,1,1.658,1.23,5.309,5.309,0,0,1,1.02,1.875,7.775,7.775,0,0,1,.345,2.363V0h-4.65V-9.885a2.72,2.72,0,0,0-.525-1.778A1.886,1.886,0,0,0,129-12.3a3.25,3.25,0,0,0-1.433.323,5.764,5.764,0,0,0-1.3.877V0h-4.65V-15.555h2.88a1.093,1.093,0,0,1,1.14.78Zm27.825,8.22a1.019,1.019,0,0,1,.36.068.979.979,0,0,1,.345.233l2.01,2.115a8.344,8.344,0,0,1-3.307,2.6,11.574,11.574,0,0,1-4.7.877,11.2,11.2,0,0,1-4.463-.848,9.658,9.658,0,0,1-3.345-2.34,10.3,10.3,0,0,1-2.107-3.54,13.072,13.072,0,0,1-.735-4.447,12.311,12.311,0,0,1,.8-4.493,10.433,10.433,0,0,1,2.235-3.533,10.065,10.065,0,0,1,3.45-2.31A11.546,11.546,0,0,1,148.7-22.1a11.806,11.806,0,0,1,2.317.218,11.327,11.327,0,0,1,2.033.6,9.284,9.284,0,0,1,1.74.923,9.13,9.13,0,0,1,1.41,1.17l-1.71,2.3a2.177,2.177,0,0,1-.39.383,1.015,1.015,0,0,1-.63.173,1.125,1.125,0,0,1-.51-.12,5.638,5.638,0,0,1-.51-.292q-.27-.172-.592-.375a4.546,4.546,0,0,0-.765-.375,6.322,6.322,0,0,0-1.035-.292,7.063,7.063,0,0,0-1.388-.12,5.589,5.589,0,0,0-2.3.465,5.019,5.019,0,0,0-1.8,1.358,6.278,6.278,0,0,0-1.17,2.19,9.772,9.772,0,0,0-.413,2.963,9,9,0,0,0,.458,2.985,6.555,6.555,0,0,0,1.245,2.2,5.283,5.283,0,0,0,1.838,1.358,5.494,5.494,0,0,0,2.25.465A10.77,10.77,0,0,0,150.03-4a5.73,5.73,0,0,0,1.065-.225,4.339,4.339,0,0,0,.93-.42,5.868,5.868,0,0,0,.885-.668,1.774,1.774,0,0,1,.39-.247A1.022,1.022,0,0,1,153.735-5.655Zm24.54-16.2L169.515,0h-4.59l-8.76-21.855h4.08a1.715,1.715,0,0,1,1.065.308,1.953,1.953,0,0,1,.615.788l4.23,11.7q.3.765.585,1.672t.54,1.9q.21-.99.472-1.9t.563-1.672l4.2-11.7a1.823,1.823,0,0,1,.592-.758,1.654,1.654,0,0,1,1.057-.337Z" transform="translate(-1.77 50.181)" fill="#363636"/>
  </g>
</svg>
